HIERARCHY
ROOT Hips
{
	OFFSET 0.000000 0.000000 0.000000 
	CHANNELS 6 Xposition Yposition Zposition Zrotation Yrotation Xrotation
	JOINT LeftUpLeg
	{
		OFFSET 1.363060 -1.794630 0.839290 
		CHANNELS 3 Zrotation Yrotation Xrotation
		JOINT LeftLeg
		{
			OFFSET 2.448110 -6.726130 0.000000 
			CHANNELS 3 Zrotation Yrotation Xrotation
			JOINT LeftFoot
			{
				OFFSET 2.562200 -7.039590 0.000000 
				CHANNELS 3 Zrotation Yrotation Xrotation
				JOINT LeftToeBase
				{
					OFFSET 0.157640 -0.433110 2.322550 
					CHANNELS 3 Zrotation Yrotation Xrotation
					End Site
					{
						OFFSET 0.000000 0.000000 0.000000 
					}
				}
			}
		}
	}
	JOINT RightUpLeg
	{
		OFFSET -1.305520 -1.794630 0.839290 
		CHANNELS 3 Zrotation Yrotation Xrotation
		JOINT RightLeg
		{
			OFFSET -2.542530 -6.985550 0.000000 
			CHANNELS 3 Zrotation Yrotation Xrotation
			JOINT RightFoot
			{
				OFFSET -2.568260 -7.056230 0.000000 
				CHANNELS 3 Zrotation Yrotation Xrotation
				JOINT RightToeBase
				{
					OFFSET -0.164730 -0.452590 2.363150 
					CHANNELS 3 Zrotation Yrotation Xrotation
					End Site
					{
						OFFSET 0.000000 0.000000 0.000000 
					}
				}
			}
		}
	}
	JOINT Spine
	{
		OFFSET 0.028270 2.035590 -0.193380 
		CHANNELS 3 Zrotation Yrotation Xrotation
		JOINT Spine1
		{
			OFFSET 0.056720 2.048850 -0.042750 
			CHANNELS 3 Zrotation Yrotation Xrotation
			JOINT Neck1
			{
				OFFSET -0.054170 1.746240 0.172020 
				CHANNELS 3 Zrotation Yrotation Xrotation
				JOINT Head
				{
					OFFSET 0.104070 1.761360 -0.123970 
					CHANNELS 3 Zrotation Yrotation Xrotation
					End Site
					{
						OFFSET 0.000000 0.000000 0.000000 
					}
				}
			}
			JOINT LeftArm
			{
				OFFSET 3.362410 1.200890 -0.311210 
				CHANNELS 3 Zrotation Yrotation Xrotation
				JOINT LeftForeArm
				{
					OFFSET 4.983000 -0.000000 -0.000000 
					CHANNELS 3 Zrotation Yrotation Xrotation
					JOINT LeftHand
					{
						OFFSET 3.483560 -0.000000 -0.000000 
						CHANNELS 3 Zrotation Yrotation Xrotation
						JOINT LeftHandIndex1
						{
							OFFSET 0.715260 -0.000000 -0.000000 
							CHANNELS 3 Zrotation Yrotation Xrotation
							End Site
							{
								OFFSET 0.000000 0.000000 0.000000 
							}
						}
					}
				}
			}
			JOINT RightArm
			{
				OFFSET -3.136600 1.374050 -0.404650 
				CHANNELS 3 Zrotation Yrotation Xrotation
				JOINT RightForeArm
				{
					OFFSET -5.241900 -0.000000 -0.000000 
					CHANNELS 3 Zrotation Yrotation Xrotation
					JOINT RightHand
					{
						OFFSET -3.444170 -0.000000 -0.000000 
						CHANNELS 3 Zrotation Yrotation Xrotation
						JOINT RightHandIndex1
						{
							OFFSET -0.622530 -0.000000 -0.000000 
							CHANNELS 3 Zrotation Yrotation Xrotation
							End Site
							{
								OFFSET 0.000000 0.000000 0.000000 
							}
						}
					}
				}
			}
		}
	}
}
MOTION
Frames: 7
Frame Time: 0.041667
-10.171880 17.256288 1.239968 -13.606812 -76.284006 23.624266 -7.230217 -15.442538 -39.169623 5.776029 15.621474 47.930474 0.414461 -16.358984 5.790004 0.463000 -4.364600 -12.104700 19.959006 11.851674 -27.348831 -4.356686 -13.685632 42.615553 -1.680829 5.527474 -11.072305 -0.423600 4.177100 -11.575400 4.068883 0.157276 8.357869 -0.623575 -0.063064 -5.837647 -9.875033 15.055405 -3.732795 -6.540200 7.341300 -2.683400 -81.929878 -18.639141 36.040506 48.701619 -48.206554 -24.063861 0.550223 0.351683 14.341374 -7.125000 0.000000 0.000000 67.773457 5.621308 21.942468 -20.859253 27.528628 -6.212659 1.580473 0.094414 23.148145 7.125000 0.000000 0.000000 
-10.074591 17.109706 1.206410 -22.924657 -74.026941 32.209626 -4.625322 -14.787964 -40.208472 7.018056 16.531841 51.688039 0.428731 -17.202541 3.538405 0.583500 -4.891000 -13.598000 23.488318 11.879458 -28.122653 -4.778926 -14.176687 44.430200 -1.557698 4.519429 -12.182035 -0.552800 4.762800 -13.233100 4.799496 0.218289 8.219374 -1.523000 -0.092821 -5.818350 -10.215181 15.759381 -3.860026 -6.744600 7.683400 -2.648900 -81.037861 -22.589059 38.963338 52.555657 -49.602845 -27.103820 0.583816 0.297647 16.194026 -7.125000 0.000000 0.000000 68.718275 3.307613 20.285125 -18.797600 25.181952 -5.199529 1.593059 -0.009703 26.268878 7.125000 0.000000 0.000000 
-9.987160 17.008434 1.183008 -24.635035 -73.367478 33.752678 -4.394384 -13.688258 -41.270163 8.244898 17.322775 55.468177 0.482070 -16.929417 0.781344 0.694600 -5.327800 -14.845900 24.406469 11.825946 -29.033034 -5.113057 -14.534738 45.763197 -1.471580 3.690079 -12.966587 -0.854700 5.896000 -16.482900 4.999807 0.171626 8.003245 -1.705524 -0.144204 -5.942691 -10.491400 16.514165 -3.934973 -6.902900 8.052600 -2.590900 -80.114663 -26.032758 41.209638 56.789581 -50.878629 -30.579878 0.616233 0.239993 17.203571 -7.125000 0.000000 0.000000 69.628543 1.200547 18.476122 -16.944807 22.980311 -4.370916 1.615476 -0.104765 29.842856 7.125000 0.000000 0.000000 
-9.920839 16.968801 1.171258 -21.949451 -73.914867 31.050854 -5.928821 -12.150704 -41.610438 9.339321 17.895909 58.889645 0.598139 -16.468729 -2.166860 0.924900 -6.126800 -17.152600 23.463418 11.658556 -29.540789 -5.308192 -14.722387 46.466727 -1.457947 3.449465 -13.217385 -1.023500 6.435900 -18.054700 4.879107 -0.000677 7.855125 -1.280875 -0.238831 -6.157378 -11.066634 17.324165 -4.098585 -7.158300 8.459200 -2.511200 -79.235576 -29.166537 42.832019 61.400439 -51.981082 -34.497072 0.647181 0.168637 17.303740 -7.125000 0.000000 0.000000 70.443535 -0.603656 16.340620 -15.388075 21.087020 -3.768731 1.672429 -0.223701 33.365307 7.125000 0.000000 0.000000 
-9.859598 16.952370 1.156918 -22.016561 -74.121127 31.236865 -6.451774 -10.492665 -41.728359 10.255575 18.307008 61.647455 0.700315 -16.034339 -4.056226 1.166700 -6.856700 -19.291400 23.343430 12.053267 -29.952350 -5.391839 -14.815680 46.770979 -1.458345 3.553429 -13.078713 -0.882500 5.988700 -16.751600 4.993597 -0.188708 7.710866 -0.754381 -0.359386 -6.276720 -12.059604 18.179393 -4.328351 -7.570600 8.903500 -2.378800 -78.123143 -32.229280 43.589110 66.072905 -52.808480 -38.578458 0.662587 0.094765 17.092913 -7.125000 0.000000 0.000000 71.239536 -2.157599 14.088730 -14.273889 19.665874 -3.343824 1.670283 -0.331187 36.393528 7.125000 0.000000 0.000000 
-9.811600 16.983838 1.158412 -22.806757 -74.443997 31.843492 -6.821202 -8.742528 -40.997956 10.943213 18.554301 63.731612 0.792753 -14.637247 -5.334770 1.706400 -8.225700 -23.401800 23.333023 12.375931 -29.692323 -5.330476 -14.754871 46.518685 -1.501784 4.090461 -12.572946 -0.586000 4.901600 -13.628000 5.132886 -0.431571 7.700809 -0.181100 -0.505180 -6.387298 -12.798236 19.109917 -4.732178 -7.868000 9.369700 -2.342700 -76.590360 -35.343239 43.554674 70.397428 -53.314102 -42.472595 0.673065 0.026736 17.039352 -7.125000 0.000000 0.000000 71.961162 -3.615284 12.230418 -13.629433 18.835657 -3.113053 1.670179 -0.397307 38.268804 7.125000 0.000000 0.000000 
-9.760516 17.045378 1.176536 -22.552828 -74.606598 31.821303 -7.211588 -7.658362 -40.132836 11.445969 18.691541 65.243760 0.781448 -14.859367 -5.490972 1.903400 -8.661900 -24.743300 23.037205 12.189002 -29.759501 -5.128685 -14.584879 45.771849 -1.498781 4.509551 -11.724506 -0.448900 4.298600 -11.918300 5.203849 -0.860126 7.761508 0.255120 -0.713623 -6.129015 -13.431108 20.035004 -5.283526 -8.090800 9.828500 -2.387400 -74.653473 -38.515662 43.155085 74.109205 -53.531601 -45.902349 0.685924 -0.040773 16.757109 -7.125000 0.000000 0.000000 72.650939 -4.979929 11.082780 -13.440121 18.603061 -3.049709 1.675534 -0.415813 38.824555 7.125000 0.000000 0.000000 
